<?xml version="1.0" encoding="UTF-8" standalone="no"?>
<svg width="205px" height="91px" viewBox="0 0 205 91" version="1.1" xmlns="http://www.w3.org/2000/svg" xmlns:xlink="http://www.w3.org/1999/xlink">
    <!-- Generator: Sketch 48.2 (47327) - http://www.bohemiancoding.com/sketch -->
    <title>ReflexHammer</title>
    <desc>Created with Sketch.</desc>
    <defs></defs>
    <g id="Artboard" stroke="none" stroke-width="1" fill="none" fill-rule="evenodd" transform="translate(-248.000000, -243.000000)">
        <g id="ReflexHammer" transform="translate(353.022698, 291.868369) rotate(-75.000000) translate(-353.022698, -291.868369) translate(325.522698, 186.368369)">
            <path d="M13.9302747,2.69030329 C41.3100916,10.257407 55,16.1939725 55,20.5 C55,24.8060274 41.310092,30.7425928 13.9302761,38.3096963 L13.9302764,38.3096975 C8.07466412,39.9280438 2.01582358,36.493061 0.397477273,30.6374488 C0.13370024,29.6830325 1.00073506e-15,28.6973699 0,27.7071736 L5.17422039e-07,13.2928256 C5.17422039e-07,7.2176936 4.92486804,2.29282608 11,2.29282608 C11.9901961,2.29282608 12.9758586,2.4265263 13.9302747,2.69030329 Z" id="Rectangle" fill="#D7263D"></path>
            <path d="M18.7012919,0 L18.7012919,2.22044605e-16 C19.6373173,5.0099531e-17 20.3961158,0.7587985 20.3961158,1.69482389 C20.3961158,1.70337009 20.3960511,1.71191618 20.3959218,1.72046141 C19.5134268,60.0518107 19.981116,96.4330176 21.7989712,110.864082 C23.9434946,127.888406 29,142.618372 29,162.790312 C29,190.151236 26.2787748,211 19.0454785,211 C11.8121821,211 6,193.956724 6,162.790312 C6,143.827187 12.2585491,128.564185 14.0077161,110.864082 C15.504723,95.715629 16.4909384,59.334494 16.9663625,1.72067702 L16.9663574,1.72067698 C16.9742181,0.768085208 17.7486677,2.08923936e-15 18.7012919,2.22044605e-16 Z" id="Rectangle-30" fill="#DADADA"></path>
        </g>
    </g>
</svg>