<?xml version="1.0" encoding="UTF-8" standalone="no"?>
<svg width="559px" height="279px" viewBox="0 0 559 279" version="1.1" xmlns="http://www.w3.org/2000/svg" xmlns:xlink="http://www.w3.org/1999/xlink">
    <!-- Generator: Sketch 48.2 (47327) - http://www.bohemiancoding.com/sketch -->
    <title>CitySkyline</title>
    <desc>Created with Sketch.</desc>
    <defs></defs>
    <g id="Artboard" stroke="none" stroke-width="1" fill="none" fill-rule="evenodd" transform="translate(-1338.000000, -185.000000)">
        <g id="CitySkyline" transform="translate(1338.000000, 185.000000)">
            <polygon id="Rectangle-16" fill="#DFDFDF" points="24 173 58 133 58 267 24 267"></polygon>
            <rect id="Rectangle-15" fill="#DFDFDF" x="522" y="192" width="33" height="72"></rect>
            <polygon id="Rectangle-12" fill="#DFDFDF" points="394 85.6523438 404.5 68 415 85.6523438 415 263.652344 394 263.652344"></polygon>
            <rect id="Rectangle-13" fill="#DFDFDF" x="435" y="165" width="48" height="99"></rect>
            <rect id="Rectangle-14" fill="#DFDFDF" x="485" y="148" width="35" height="116"></rect>
            <polygon id="Rectangle-10" fill="#DFDFDF" points="237 152 261 136 261 265 237 265"></polygon>
            <rect id="Rectangle-11" fill="#DFDFDF" x="344" y="73" width="19" height="191"></rect>
            <rect id="Rectangle-5" fill="#DFDFDF" x="126" y="32" width="57" height="232"></rect>
            <path d="M212,96.3029514 L228,106.726562 L228,131 L232,131 L232,264 L187,264 L187,131 L192,131 L192,106.726562 L208,96.3029514 L208,66 L212,66 L212,96.3029514 Z" id="Combined-Shape" fill="#DFDFDF"></path>
            <rect id="Rectangle-9" fill="#DFDFDF" x="263" y="25" width="33" height="239"></rect>
            <path d="M96,40 L108,40 L108,70 L122,70 L122,264 L62,264 L62,70 L76,70 L76,40 L88,40 L88,0 L96,0 L96,40 Z" id="Combined-Shape" fill="#DFDFDF"></path>
            <rect id="Rectangle-25" fill="#3185FC" x="0" y="269" width="559" height="10"></rect>
            <rect id="Rectangle-24" fill="#3185FC" x="422" y="204" width="43" height="60"></rect>
            <rect id="Rectangle-23" fill="#3185FC" x="360" y="184" width="33" height="80"></rect>
            <path d="M336,206 L361,206 L361,264 L271,264 L271,206 L296,206 L296,194.208113 C296,194.20808 296,194.208048 296,194.208015 L296,193 L296.025993,193 C296.464676,182.991013 302.456011,177.677955 314,177.060826 L314,150 L318,150 L318,177.029587 C332.162746,177.547725 338.278596,184.871196 336.34755,199 L336,199 L336,206 Z" id="Combined-Shape" fill="#3185FC"></path>
            <path d="M233,198 L239,198 L239,208 L248,208 L248,264 L214,264 L214,208 L223,208 L223,198 L229,198 L229,182 L233,182 L233,198 Z" id="Combined-Shape" fill="#3185FC"></path>
            <rect id="Rectangle-17" fill="#3185FC" x="102" y="165" width="82" height="99"></rect>
        </g>
    </g>
</svg>