<?xml version="1.0" encoding="UTF-8" standalone="no"?>
<svg width="269px" height="285px" viewBox="0 0 269 285" version="1.1" xmlns="http://www.w3.org/2000/svg" xmlns:xlink="http://www.w3.org/1999/xlink">
    <!-- Generator: Sketch 48.2 (47327) - http://www.bohemiancoding.com/sketch -->
    <title>Shield</title>
    <desc>Created with Sketch.</desc>
    <defs></defs>
    <g id="Artboard" stroke="none" stroke-width="1" fill="none" fill-rule="evenodd" transform="translate(-1590.000000, -2192.000000)">
        <g id="Shield" transform="translate(1590.000000, 2192.000000)">
            <g id="Group-24">
                <path d="M248.395608,38.5908457 C261.448704,59.3596597 269,83.9492052 269,110.305936 C269,184.735059 208.782299,285 134.5,285 C60.2177012,285 0,184.735059 0,110.305936 C0,83.9492049 7.55129572,59.3596592 20.6043921,38.5908452 C32.4731155,45.8484926 45.9504075,49.9482514 60.2386197,49.9482514 C91.831003,49.9482514 119.458898,29.9050399 134.5,4.93205476e-12 C149.541102,29.9050399 177.168997,49.9482514 208.76138,49.9482514 C223.049592,49.9482514 236.526884,45.8484926 248.395611,38.5908499 Z" id="Combined-Shape" fill="#E9E9E9"></path>
                <path d="M238.233918,48.2056838 C250.122426,67.152672 257,89.5852398 257,113.629977 C257,181.530229 202.154882,273 134.5,273 C66.8451181,273 12,181.530229 12,113.629977 C12,89.5852396 18.8775742,67.1526716 30.7660821,48.2056833 C41.5758859,54.826695 53.8507429,58.5668259 66.8641703,58.5668259 C95.6379023,58.5668259 120.800855,40.2817908 134.5,13 C148.199145,40.2817908 173.362098,58.5668259 202.13583,58.5668259 C215.149257,58.5668259 227.424114,54.826695 238.233921,48.2056877 Z" id="Combined-Shape" fill="#3185FC"></path>
            </g>
            <path d="M147,136.5 L178.5,136.5 L178.5,159.5 L147,159.5 L147,191 L124,191 L124,159.5 L92.5,159.5 L92.5,136.5 L124,136.5 L124,105 L147,105 L147,136.5 Z" id="Combined-Shape" fill="#FBFBFB"></path>
        </g>
    </g>
</svg>