<?xml version="1.0" encoding="UTF-8" standalone="no"?>
<svg width="287px" height="224px" viewBox="0 0 287 224" version="1.1" xmlns="http://www.w3.org/2000/svg" xmlns:xlink="http://www.w3.org/1999/xlink">
    <!-- Generator: Sketch 48.2 (47327) - http://www.bohemiancoding.com/sketch -->
    <title>Stethoscope</title>
    <desc>Created with Sketch.</desc>
    <defs></defs>
    <g id="Artboard" stroke="none" stroke-width="1" fill="none" fill-rule="evenodd" transform="translate(-605.000000, -205.000000)">
        <g id="Stethoscope" transform="translate(766.856061, 290.636319) rotate(-330.000000) translate(-766.856061, -290.636319) translate(645.356061, 157.636319)">
            <path d="M124.175204,38.0250687 L124.949243,43.9749313 C116.547649,45.0679244 111.747842,49.9738258 110.103781,59.3178109 C108.522757,68.3035294 123.770489,86.5946413 155.890837,112.670894 L152.109163,117.329106 C118.032446,89.6646149 102.04629,70.4876939 104.194552,58.2780906 C106.279778,46.4267538 113.088675,39.4673547 124.175204,38.0250687 Z" id="Path-6" fill="#DFDFDF" fill-rule="nonzero"></path>
            <path d="M184.062102,6.02503698 L184.835653,11.974963 C176.486563,13.0604288 171.71854,17.9307152 170.084761,27.2103059 C168.539428,35.9875369 186.138015,54.383268 222.744977,80.5597018 L219.255023,85.4402982 C180.326517,57.6038047 162.011906,38.459617 164.175646,26.169938 C166.25094,14.3826185 173.0287,7.45949036 184.062102,6.02503698 Z" id="Path-6" fill="#DFDFDF" fill-rule="nonzero" transform="translate(193.374589, 45.732668) scale(1, -1) rotate(-120.000000) translate(-193.374589, -45.732668) "></path>
            <circle id="Oval-8" fill="#3185FC" cx="122" cy="40" r="5"></circle>
            <circle id="Oval-8" fill="#3185FC" cx="168" cy="17" r="5"></circle>
            <g id="Group-4" transform="translate(-0.000000, 80.000000)" fill="#3185FC" fill-rule="nonzero">
                <path d="M141.217486,185.520765 C120.50403,184.875824 106.394135,174.975881 97.8529072,157.21282 C91.6032675,144.215539 88.7616652,129.684615 85.9610608,103.535433 C85.7708648,101.759578 85.6984481,101.070027 85.2665351,96.9392629 C82.5521189,70.978908 80.6768776,59.9435818 76.3745431,50.0113258 C71.3503865,38.4126903 64.0504745,33.371535 51.5779039,34.0913833 C31.2315308,35.2656643 19.9059343,42.8613595 15.8938371,57.1743906 C11.5081818,72.8200784 15.5036098,96.9633002 28.3255213,129.240133 L30.9098157,135.745625 L17.8988323,140.914214 L15.3145379,134.408722 C1.4630728,99.5401749 -2.98576348,72.6571374 2.4134292,53.3956867 C8.18617992,32.8015795 24.8745436,21.6092573 50.7712431,20.114642 C69.4216538,19.0382426 81.9681022,27.702538 89.2210971,44.4466109 C94.3157294,56.2079448 96.3128126,67.9602804 99.1906273,95.483359 C99.6210248,99.5996293 99.6930567,100.285516 99.8814506,102.044545 C102.513696,126.62176 105.143076,140.067457 110.470082,151.145951 C116.824282,164.360684 126.360196,171.051379 141.653184,171.527547 C165.600639,172.273183 181.654721,164.727648 190.927544,148.886815 C200.657576,132.264929 203.329838,105.990089 198.495897,70.1313918 L198.384683,69.3063915 L205.458137,0.698795582 L219.384318,2.13458706 L212.481135,69.0906707 C222.755636,146.843707 198.856838,187.315444 141.217486,185.520765 Z" id="Path-2"></path>
                <polygon id="Path-5" points="212.429961 65.5281875 204.528145 77.0850601 148.158811 38.5434826 156.060627 26.9866099"></polygon>
            </g>
            <g id="Group-3" transform="translate(1.000000, 212.000000)">
                <circle id="Oval-9" fill="#DFDFDF" cx="27" cy="27" r="27"></circle>
                <circle id="Oval-9" fill="#FBFBFB" cx="27.287234" cy="27.287234" r="12.9255319"></circle>
                <circle id="Oval-9" fill="#DFDFDF" cx="27.287234" cy="27.287234" r="8.90425532"></circle>
            </g>
        </g>
    </g>
</svg>