<?xml version="1.0" encoding="UTF-8" standalone="no"?>
<svg width="41px" height="23px" viewBox="0 0 41 23" version="1.1" xmlns="http://www.w3.org/2000/svg" xmlns:xlink="http://www.w3.org/1999/xlink">
    <!-- Generator: Sketch 48.2 (47327) - http://www.bohemiancoding.com/sketch -->
    <title>Shape</title>
    <desc>Created with Sketch.</desc>
    <defs></defs>
    <g id="Home---1280---Scroll-Animations" stroke="none" stroke-width="1" fill="none" fill-rule="evenodd" transform="translate(-1136.000000, -1050.000000)">
        <path d="M1173.30893,1056.77578 L1163.35268,1056.54531 L1154.50268,1050.09219 C1154.4105,1050.04609 1154.31831,1050 1154.22612,1050 L1149.34018,1050 C1149.15581,1050 1149.01753,1050.09219 1148.92534,1050.27656 C1148.83315,1050.41484 1148.87925,1050.64531 1148.97143,1050.78359 L1154.22612,1056.54531 L1144.63862,1056.72969 C1144.0855,1056.72969 1143.62456,1056.40703 1143.39409,1055.94609 C1143.39409,1055.91536 1142.36466,1054.67083 1140.30581,1052.2125 C1140.21362,1052.12031 1140.07534,1052.02812 1139.93706,1052.02812 L1136.43394,1052.02812 C1136.29566,1052.02812 1136.11128,1052.12031 1136.06519,1052.25859 C1136.01909,1052.39687 1135.973,1052.53516 1136.01909,1052.71953 L1139.79878,1060.97031 C1140.16753,1061.8 1140.90503,1062.39922 1141.73472,1062.4914 L1154.4105,1063.87422 L1146.57456,1071.47968 C1146.43628,1071.61797 1146.43628,1071.80234 1146.48237,1071.98672 C1146.57456,1072.17109 1146.71284,1072.26328 1146.89722,1072.26328 L1152.79721,1072.26328 C1152.8894,1072.26328 1153.02768,1072.21718 1153.07378,1072.17109 L1163.30659,1064.75 L1173.21674,1064.88828 C1175.29096,1064.88828 1176.99643,1063.04453 1176.99643,1060.83203 C1177.08862,1058.57344 1175.38315,1056.77578 1173.30893,1056.77578 Z" id="Shape" fill="#3185FC" fill-rule="nonzero"></path>
    </g>
</svg>